<svg width="31" height="31" viewBox="0 0 31 31" fill="none" xmlns="http://www.w3.org/2000/svg">
<path d="M12.7193 3.01708H10.1755C8.77633 3.01708 7.63159 4.13247 7.63159 5.49572L7.63159 26.5641C7.63159 27.9273 8.77633 29.0427 10.1755 29.0427H20.3509C21.75 29.0427 22.8948 27.9273 22.8948 26.5641V5.49572C22.8948 4.13247 21.75 3.01708 20.3509 3.01708H17.807C17.807 2.33546 17.2347 1.77777 16.5351 1.77777H13.9912C13.2917 1.77777 12.7193 2.33546 12.7193 3.01708ZM13.9912 4.2564H16.5351H20.3509C21.0505 4.2564 21.6228 4.81409 21.6228 5.49572V26.5641C21.6228 27.2457 21.0505 27.8034 20.3509 27.8034H10.1755C9.47589 27.8034 8.90352 27.2457 8.90352 26.5641L8.90352 5.49572C8.90352 4.81409 9.47589 4.2564 10.1755 4.2564H13.9912ZM20.3509 26.5641V21.735H10.1755V26.5641H20.3509Z" fill="#18AE44"/>
</svg>
